REM DIRINDEX 1\6,1\2\7,1\2\8,1\2\9,1\3\10,1\3\11,1\4\12,1\4\13,1\4\14,1\5\15,1\5\16,1\5\17
REM DIRNAME folder01,folder02,folder03,folder04,folder05,folder06,folder07,folder08,folder09,folder10,folder11,folder12,folder13,folder14,folder15,folder16,folder17
TITLE ""
FILE "3Q_t2_0601-0615.mp3" MP3
  TRACK 01 AUDIO
    TITLE "6:cjc041_5219"
    INDEX 01 00:00:00
  TRACK 02 AUDIO
    TITLE "0:"
    INDEX 01 00:08:15
  TRACK 03 AUDIO
    TITLE "7:cjc041_5220"
    INDEX 01 00:09:28
  TRACK 04 AUDIO
    TITLE "0:"
    INDEX 01 00:10:45
  TRACK 05 AUDIO
    TITLE "8:cjc041_5221"
    INDEX 01 00:11:29
  TRACK 06 AUDIO
    TITLE "0:"
    INDEX 01 00:13:02
  TRACK 07 AUDIO
    TITLE "9:cjc041_5222"
    INDEX 01 00:13:59
  TRACK 08 AUDIO
    TITLE "0:"
    INDEX 01 00:14:74
  TRACK 09 AUDIO
    TITLE "7:cjc041_5223"
    INDEX 01 00:16:53
  TRACK 10 AUDIO
    TITLE "0:"
    INDEX 01 00:17:70
  TRACK 11 AUDIO
    TITLE "8:cjc041_5224"
    INDEX 01 00:18:44
  TRACK 12 AUDIO
    TITLE "0:"
    INDEX 01 00:20:00
  TRACK 13 AUDIO
    TITLE "9:cjc041_5225"
    INDEX 01 00:20:45
  TRACK 14 AUDIO
    TITLE "0:"
    INDEX 01 00:21:60
  TRACK 15 AUDIO
    TITLE "7:cjc041_5226"
    INDEX 01 00:23:42
  TRACK 16 AUDIO
    TITLE "0:"
    INDEX 01 00:24:57
  TRACK 17 AUDIO
    TITLE "8:cjc041_5227"
    INDEX 01 00:25:35
  TRACK 18 AUDIO
    TITLE "0:"
    INDEX 01 00:26:54
  TRACK 19 AUDIO
    TITLE "9:cjc041_5228"
    INDEX 01 00:27:30
  TRACK 20 AUDIO
    TITLE "0:"
    INDEX 01 00:28:39
  TRACK 21 AUDIO
    TITLE "7:cjc041_5229"
    INDEX 01 00:30:24
  TRACK 22 AUDIO
    TITLE "0:"
    INDEX 01 00:31:24
  TRACK 23 AUDIO
    TITLE "8:cjc041_5230"
    INDEX 01 00:32:01
  TRACK 24 AUDIO
    TITLE "0:"
    INDEX 01 00:33:05
  TRACK 25 AUDIO
    TITLE "9:cjc041_5231"
    INDEX 01 00:33:54
  TRACK 26 AUDIO
    TITLE "0:"
    INDEX 01 00:34:55
  TRACK 27 AUDIO
    TITLE "7:cjc041_5232"
    INDEX 01 00:36:31
  TRACK 28 AUDIO
    TITLE "0:"
    INDEX 01 00:37:54
  TRACK 29 AUDIO
    TITLE "8:cjc041_5233"
    INDEX 01 00:38:31
  TRACK 30 AUDIO
    TITLE "0:"
    INDEX 01 00:40:15
  TRACK 31 AUDIO
    TITLE "9:cjc041_5234"
    INDEX 01 00:40:66
  TRACK 32 AUDIO
    TITLE "0:"
    INDEX 01 00:42:18
  TRACK 33 AUDIO
    TITLE "7:cjc041_5235"
    INDEX 01 00:43:70
  TRACK 34 AUDIO
    TITLE "0:"
    INDEX 01 00:45:06
  TRACK 35 AUDIO
    TITLE "8:cjc041_5236"
    INDEX 01 00:45:59
  TRACK 36 AUDIO
    TITLE "0:"
    INDEX 01 00:47:11
  TRACK 37 AUDIO
    TITLE "9:cjc041_5237"
    INDEX 01 00:47:68
  TRACK 38 AUDIO
    TITLE "0:"
    INDEX 01 00:49:06
  TRACK 39 AUDIO
    TITLE "7:cjc041_5238"
    INDEX 01 00:50:60
  TRACK 40 AUDIO
    TITLE "0:"
    INDEX 01 00:51:62
  TRACK 41 AUDIO
    TITLE "8:cjc041_5239"
    INDEX 01 00:52:41
  TRACK 42 AUDIO
    TITLE "0:"
    INDEX 01 00:53:66
  TRACK 43 AUDIO
    TITLE "9:cjc041_5240"
    INDEX 01 00:54:36
  TRACK 44 AUDIO
    TITLE "0:"
    INDEX 01 00:55:38
  TRACK 45 AUDIO
    TITLE "7:cjc041_5241"
    INDEX 01 00:57:23
  TRACK 46 AUDIO
    TITLE "0:"
    INDEX 01 00:58:28
  TRACK 47 AUDIO
    TITLE "8:cjc041_5242"
    INDEX 01 00:59:00
  TRACK 48 AUDIO
    TITLE "0:"
    INDEX 01 01:01:15
  TRACK 49 AUDIO
    TITLE "9:cjc041_5243"
    INDEX 01 01:01:68
  TRACK 50 AUDIO
    TITLE "0:"
    INDEX 01 01:02:71
  TRACK 51 AUDIO
    TITLE "7:cjc041_5244"
    INDEX 01 01:04:50
  TRACK 52 AUDIO
    TITLE "0:"
    INDEX 01 01:05:73
  TRACK 53 AUDIO
    TITLE "8:cjc041_5245"
    INDEX 01 01:06:53
  TRACK 54 AUDIO
    TITLE "0:"
    INDEX 01 01:07:74
  TRACK 55 AUDIO
    TITLE "9:cjc041_5246"
    INDEX 01 01:08:50
  TRACK 56 AUDIO
    TITLE "0:"
    INDEX 01 01:10:00
  TRACK 57 AUDIO
    TITLE "7:cjc041_5247"
    INDEX 01 01:11:58
  TRACK 58 AUDIO
    TITLE "0:"
    INDEX 01 01:13:02
  TRACK 59 AUDIO
    TITLE "8:cjc041_5248"
    INDEX 01 01:13:55
  TRACK 60 AUDIO
    TITLE "0:"
    INDEX 01 01:15:03
  TRACK 61 AUDIO
    TITLE "9:cjc041_5249"
    INDEX 01 01:15:58
  TRACK 62 AUDIO
    TITLE "0:"
    INDEX 01 01:17:04
  TRACK 63 AUDIO
    TITLE "7:cjc041_5250"
    INDEX 01 01:18:58
  TRACK 64 AUDIO
    TITLE "0:"
    INDEX 01 01:20:04
  TRACK 65 AUDIO
    TITLE "8:cjc041_5251"
    INDEX 01 01:20:51
  TRACK 66 AUDIO
    TITLE "0:"
    INDEX 01 01:23:34
  TRACK 67 AUDIO
    TITLE "9:cjc041_5252"
    INDEX 01 01:24:10
  TRACK 68 AUDIO
    TITLE "0:"
    INDEX 01 01:25:25
  TRACK 69 AUDIO
    TITLE "7:cjc041_5253"
    INDEX 01 01:27:03
  TRACK 70 AUDIO
    TITLE "0:"
    INDEX 01 01:28:18
  TRACK 71 AUDIO
    TITLE "8:cjc041_5254"
    INDEX 01 01:28:71
  TRACK 72 AUDIO
    TITLE "0:"
    INDEX 01 01:30:38
  TRACK 73 AUDIO
    TITLE "9:cjc041_5255"
    INDEX 01 01:31:20
  TRACK 74 AUDIO
    TITLE "0:"
    INDEX 01 01:32:35
  TRACK 75 AUDIO
    TITLE "7:cjc041_5256"
    INDEX 01 01:34:18
  TRACK 76 AUDIO
    TITLE "0:"
    INDEX 01 01:35:43
  TRACK 77 AUDIO
    TITLE "8:cjc041_5257"
    INDEX 01 01:36:19
  TRACK 78 AUDIO
    TITLE "0:"
    INDEX 01 01:40:15
  TRACK 79 AUDIO
    TITLE "9:cjc041_5258"
    INDEX 01 01:40:70
  TRACK 80 AUDIO
    TITLE "0:"
    INDEX 01 01:42:14
  TRACK 81 AUDIO
    TITLE "7:cjc041_5259"
    INDEX 01 01:43:68
  TRACK 82 AUDIO
    TITLE "0:"
    INDEX 01 01:45:10
  TRACK 83 AUDIO
    TITLE "8:cjc041_5260"
    INDEX 01 01:45:67
  TRACK 84 AUDIO
    TITLE "0:"
    INDEX 01 01:47:62
  TRACK 85 AUDIO
    TITLE "9:cjc041_5261"
    INDEX 01 01:48:36
  TRACK 86 AUDIO
    TITLE "0:"
    INDEX 01 01:49:53
  TRACK 87 AUDIO
    TITLE "7:cjc041_5262"
    INDEX 01 01:51:32
  TRACK 88 AUDIO
    TITLE "0:"
    INDEX 01 01:52:55
  TRACK 89 AUDIO
    TITLE "8:cjc041_5263"
    INDEX 01 01:53:35
  TRACK 90 AUDIO
    TITLE "0:"
    INDEX 01 01:54:48
  TRACK 91 AUDIO
    TITLE "9:cjc041_5264"
    INDEX 01 01:55:30
  TRACK 92 AUDIO
    TITLE "0:"
    INDEX 01 01:56:53
